Coordinates
version=1
nRows=24
nColumns=38
inDegrees=no

Units are S.I. units (second, meters, Newtons, ...)
If the header above contains a line with 'inDegrees', this indicates whether rotational values are in degrees (yes) or radians (no).

endheader
time	pelvis_tilt	pelvis_list	pelvis_rotation	pelvis_tx	pelvis_ty	pelvis_tz	hip_flexion_r	hip_adduction_r	hip_rotation_r	knee_angle_r	ankle_angle_r	subtalar_angle_r	mtp_angle_r	hip_flexion_l	hip_adduction_l	hip_rotation_l	knee_angle_l	ankle_angle_l	subtalar_angle_l	mtp_angle_l	lumbar_extension	lumbar_bending	lumbar_rotation	arm_flex_r	arm_add_r	arm_rot_r	elbow_flex_r	pro_sup_r	wrist_flex_r	wrist_dev_r	arm_flex_l	arm_add_l	arm_rot_l	elbow_flex_l	pro_sup_l	wrist_flex_l	wrist_dev_l
65	-0.380392	1.19762	0.946023	1.27686	-0.416314	0.994358	0.55785	-0.0294131	-0.318892	0.249795	-0.265509	0	0	0.289428	-0.118004	-0.0518666	0.427775	-0.128035	0	0	0.0525846	0.107464	-0.0321573	0.112926	-0.538627	0.807911	0.617437	0.88203	0	0	0.0617664	-0.407452	0.637467	0.66421	1.11282	0	0
65.01	-0.367259	1.18471	0.959023	1.28146	-0.413498	0.99336	0.563432	-0.0094531	-0.274544	0.185258	-0.313358	0	0	0.303727	-0.12743	-0.0354015	0.440428	-0.126945	0	0	0.0568247	0.112249	-0.0326941	0.116145	-0.546549	0.802928	0.626411	0.898998	0	0	0.0501903	-0.394604	0.56834	0.662945	1.17489	0	0
65.02	-0.3495	1.17504	0.968706	1.28627	-0.410295	0.992497	0.565691	0.00657561	-0.24163	0.133181	-0.326439	0	0	0.313641	-0.135914	-0.01806	0.451937	-0.126689	0	0	0.0581737	0.116629	-0.0330527	0.118381	-0.555257	0.797643	0.635858	0.906477	0	0	0.0466787	-0.388771	0.536303	0.662496	1.19878	0	0
65.03	-0.330039	1.16624	0.977193	1.29125	-0.406941	0.9916	0.566737	0.020211	-0.210243	0.084582	-0.340525	0	0	0.322527	-0.144384	-0.000787946	0.463684	-0.125922	0	0	0.0587277	0.121163	-0.0341416	0.120617	-0.563344	0.791022	0.644409	0.913753	0	0	0.0424006	-0.382581	0.502249	0.662547	1.2208	0	0
65.04	-0.309588	1.15833	0.984968	1.29637	-0.403566	0.990657	0.568518	0.031146	-0.186938	0.0448098	-0.352964	0	0	0.330627	-0.152687	0.0165319	0.475692	-0.124357	0	0	0.0584077	0.1255	-0.0355701	0.122864	-0.570541	0.783317	0.652234	0.922417	0	0	0.0386392	-0.376495	0.469364	0.662324	1.24455	0	0
65.05	-0.28843	1.1517	0.99175	1.30172	-0.400189	0.989714	0.57162	0.0401071	-0.173078	0.0160823	-0.361205	0	0	0.337425	-0.16106	0.0318351	0.487742	-0.122256	0	0	0.0568923	0.129249	-0.0368705	0.125251	-0.576327	0.774372	0.658772	0.933745	0	0	0.034809	-0.370688	0.435979	0.661837	1.26836	0	0
65.06	-0.268585	1.14652	0.999354	1.30708	-0.396738	0.988755	0.577122	0.0465941	-0.169081	0	-0.366485	0	0	0.343106	-0.16772	0.0487082	0.499803	-0.120262	0	0	0.0544275	0.132035	-0.0379244	0.128386	-0.581485	0.765829	0.664346	0.946114	0	0	0.0316679	-0.365264	0.404118	0.660756	1.28781	0	0
65.07	-0.24898	1.14391	1.00615	1.31271	-0.393232	0.987916	0.583648	0.0514215	-0.176388	0	-0.366222	0	0	0.345955	-0.17293	0.0660048	0.511816	-0.118296	0	0	0.0494456	0.133139	-0.0380511	0.130988	-0.584627	0.752689	0.668729	0.963038	0	0	0.0263159	-0.35751	0.359428	0.660697	1.31415	0	0
65.08	-0.230665	1.14236	1.01365	1.31859	-0.389755	0.987007	0.590019	0.0552495	-0.180216	0	-0.361478	0	0	0.348781	-0.178003	0.0800468	0.525114	-0.117275	0	0	0.0440062	0.133042	-0.0376528	0.134071	-0.586808	0.740615	0.672546	0.974726	0	0	0.022293	-0.353128	0.32578	0.662052	1.32992	0	0
65.09	-0.212313	1.14292	1.02099	1.3246	-0.386145	0.986106	0.59559	0.0575129	-0.186302	0.00474341	-0.354768	0	0	0.350236	-0.18214	0.0936741	0.539609	-0.116506	0	0	0.0364601	0.131896	-0.0375176	0.138151	-0.588062	0.728799	0.67554	0.985878	0	0	0.0190298	-0.350435	0.297223	0.66394	1.3433	0	0
65.1	-0.192496	1.14628	1.02752	1.33063	-0.382221	0.985271	0.600131	0.0574882	-0.202222	0.0226792	-0.345912	0	0	0.349401	-0.184717	0.10902	0.555473	-0.11584	0	0	0.0255767	0.130115	-0.0380879	0.141854	-0.588401	0.71253	0.678594	1.00363	0	0	0.0151541	-0.346449	0.262676	0.666481	1.36131	0	0
65.11	-0.173107	1.15075	1.03458	1.33667	-0.378193	0.984332	0.604374	0.0556492	-0.21975	0.0466945	-0.340542	0	0	0.348834	-0.186212	0.125935	0.573901	-0.115774	0	0	0.0136278	0.12779	-0.0387255	0.144851	-0.587997	0.69365	0.681922	1.02913	0	0	0.0112887	-0.341686	0.224948	0.669488	1.37819	0	0
65.12	-0.154107	1.15577	1.04314	1.34271	-0.374081	0.983184	0.608323	0.0515567	-0.23832	0.0763697	-0.341759	0	0	0.349818	-0.186559	0.145856	0.595738	-0.115957	0	0	0.00144156	0.125288	-0.040055	0.147703	-0.58809	0.676649	0.686536	1.05692	0	0	0.00905414	-0.338338	0.194736	0.67238	1.3952	0	0
65.13	-0.135572	1.16098	1.05394	1.34867	-0.369893	0.981751	0.612339	0.0445621	-0.26048	0.112004	-0.350072	0	0	0.354134	-0.185742	0.168355	0.623197	-0.115835	0	0	-0.01071	0.123049	-0.0434743	0.145715	-0.583379	0.643945	0.685073	1.14384	0	0	0.00768361	-0.33872	0.177262	0.676407	1.40202	0	0
65.14	-0.118121	1.16741	1.0669	1.35459	-0.365688	0.98018	0.615268	0.0343053	-0.285526	0.15135	-0.35731	0	0	0.360608	-0.182638	0.194223	0.656152	-0.116542	0	0	-0.0244059	0.11906	-0.0489776	0.148089	-0.577508	0.607103	0.692482	1.12205	0	0	0.00365424	-0.337034	0.146078	0.684073	1.4211	0	0
65.15	-0.0866579	1.17665	1.06731	1.36035	-0.361381	0.978553	0.612689	0.0250186	-0.316959	0.19279	-0.352199	0	0	0.367888	-0.188515	0.206692	0.695025	-0.172013	0	0	-0.0448766	0.120629	-0.0572454	0.149669	-0.57175	0.571033	0.693577	1.22503	0	0	-0.00353178	-0.328572	0.0911732	0.695304	1.4636	0	0
65.16	-0.0737193	1.1829	1.08898	1.36526	-0.357743	0.976912	0.618055	0.00748568	-0.340088	0.235916	-0.333702	0	0	0.381479	-0.172002	0.261438	0.741692	-0.128398	0	0	-0.0642617	0.113314	-0.0729902	0.109829	-0.502675	0.282363	0.671082	1.20753	0	0	-0.0156956	-0.322197	0.0251159	0.719239	1.50658	0	0
65.17	-0.038321	1.18636	1.08767	1.36959	-0.353844	0.974619	0.621658	-0.00255505	-0.360524	0.279271	-0.309845	0	0	0.400503	-0.169293	0.300693	0.79749	-0.135715	0	0	-0.0804466	0.125678	-0.0790409	0.104865	-0.424638	0.0756269	0.684655	1.5708	0	0	-0.0108335	-0.314221	0.000522484	0.718474	1.5327	0	0
65.18	-0.015382	1.18731	1.09531	1.37441	-0.35033	0.972786	0.628558	-0.0116137	-0.364684	0.318478	-0.28416	0	0	0.423384	-0.163144	0.336949	0.849872	-0.148588	0	0	-0.0952677	0.128249	-0.0831092	0.111924	-0.455777	0.0548729	0.6864	1.07413	0	0	-0.00930888	-0.312513	-0.0207069	0.727345	1.54519	0	0
65.19	0.0594511	1.20276	1.04864	1.37799	-0.347444	0.971821	0.611818	-0.00857057	-0.368442	0.354742	-0.253159	0	0	0.427027	-0.170202	0.360406	0.908709	-0.156682	0	0	-0.143693	0.163746	-0.0683755	0.163503	-0.23967	-0.694449	0.731928	1.21925	0	0	0.0227632	-0.311891	0.0196016	0.709825	1.52935	0	0
65.2	0.0703775	1.19588	1.06571	1.38338	-0.3434	0.970453	0.621972	-0.0135061	-0.368318	0.382538	-0.229651	0	0	0.456622	-0.165265	0.386089	0.951421	-0.173244	0	0	-0.138094	0.150944	-0.0811059	0.143626	-0.458886	0.0423909	0.686041	1.19389	0	0	0.00630181	-0.30457	-0.0462501	0.72854	1.5708	0	0
65.21	0.120563	1.2011	1.04201	1.38789	-0.339725	0.9698	0.612396	-0.0108297	-0.372834	0.406688	-0.210663	0	0	0.468913	-0.1691	0.403256	0.997401	-0.184075	0	0	-0.16106	0.163569	-0.0782372	0.167641	-0.476429	0.0859526	0.679371	1.16783	0	0	0.0145151	-0.30224	-0.051396	0.727733	1.5708	0	0
65.22	0.174937	1.20747	1.01273	1.39222	-0.336137	0.969161	0.59952	-0.00704749	-0.380626	0.427539	-0.186909	0	0	0.478808	-0.173223	0.416228	1.04317	-0.194198	0	0	-0.186717	0.178878	-0.0751099	0.234737	-0.565441	0.427804	0.709031	1.34023	0	0	0.0219292	-0.299445	-0.0559458	0.727192	1.5708	0	0
65.23	0.226777	1.21505	0.984191	1.39691	-0.332474	0.968877	0.583869	-0.00360325	-0.391058	0.444413	-0.161824	0	0	0.486495	-0.176675	0.42221	1.08569	-0.200362	0	0	-0.213293	0.18961	-0.0705477	0.280224	-0.603803	0.550924	0.71493	1.22372	0	0	0.027341	-0.296186	-0.0669233	0.729969	1.5708	0	0
